<svg width="60" height="60" viewBox="0 0 60 60" fill="none" xmlns="http://www.w3.org/2000/svg">
<path d="M55 16.8751H48.0277C46.525 16.8751 45.7735 16.8751 45.065 16.6606C44.3565 16.446 43.7313 16.0292 42.4808 15.1956C40.6053 13.9452 38.4655 12.5187 37.4025 12.1969C36.3398 11.8751 35.2125 11.8751 32.9583 11.8751C29.8928 11.8751 27.9168 11.8751 26.5385 12.446C25.1603 13.0169 24.0764 14.1008 21.9087 16.2685L20.001 18.1762C19.5125 18.6647 19.2682 18.909 19.1174 19.1502C18.5584 20.0441 18.6203 21.1927 19.2722 22.0214C19.4481 22.2449 19.7172 22.4615 20.2554 22.8947C22.2449 24.4957 25.113 24.3359 26.9145 22.5237L30 19.4198H32.5L47.5 34.509C48.8807 35.898 48.8807 38.1498 47.5 39.5388C46.1193 40.9278 43.8807 40.9278 42.5 39.5388L41.25 38.2813M41.25 38.2813L33.75 30.7368M41.25 38.2813C42.6307 39.6703 42.6307 41.9223 41.25 43.311C39.8693 44.7 37.6307 44.7 36.25 43.311L33.75 40.7963M33.75 40.7963C35.1307 42.185 35.1307 44.437 33.75 45.826C32.3693 47.2148 30.1307 47.2148 28.75 45.826L25 42.0535M33.75 40.7963L28.75 35.7963M25 42.0535L23.75 40.7963M25 42.0535C26.3807 43.4425 26.3807 45.6945 25 47.0835C23.6193 48.4723 21.3807 48.4723 20 47.0835L12.9409 39.8773C11.4904 38.3965 10.7651 37.6563 9.83588 37.2655C8.90665 36.875 7.8702 36.875 5.79735 36.875H5" stroke="#60FFFF" stroke-width="3" stroke-linecap="round" stroke-linejoin="round"/>
<path d="M55 36.875H48.75" stroke="#60FFFF" stroke-width="3" stroke-linecap="round"/>
<path d="M21.25 16.8751H5" stroke="#60FFFF" stroke-width="3" stroke-linecap="round"/>
</svg>
