<svg width="60" height="60" viewBox="0 0 60 60" fill="none" xmlns="http://www.w3.org/2000/svg">
<path d="M20.2132 34.602L21.0091 35.8995C21.4318 36.5872 22.449 36.8453 23.182 36.447L23.6031 36.2175C24.0636 36.5588 24.5713 36.8394 25.1122 37.0515V37.5C25.1122 38.3272 25.8261 39 26.7041 39H28.2959C29.1739 39 29.8878 38.3272 29.8878 37.5V37.0515C30.4285 36.8394 30.9362 36.5591 31.3969 36.2182L31.818 36.4477C32.5526 36.8452 33.5674 36.5887 33.9917 35.8995L34.7868 34.6027C34.9978 34.2583 35.055 33.849 34.9459 33.4648C34.8368 33.0806 34.5703 32.7529 34.205 32.5537L33.803 32.3347C33.8885 31.7817 33.8885 31.2198 33.803 30.6667L34.205 30.4477C34.5701 30.2484 34.8365 29.9207 34.9456 29.5366C35.0546 29.1525 34.9975 28.7433 34.7868 28.3987L33.9917 27.102C33.569 26.412 32.5526 26.1532 31.818 26.553L31.3969 26.7825C30.9364 26.4412 30.4287 26.1606 29.8878 25.9485V25.5C29.8878 24.6727 29.1739 24 28.2959 24H26.7041C25.8261 24 25.1122 24.6727 25.1122 25.5V25.9485C24.5715 26.1606 24.0638 26.4409 23.6031 26.7817L23.182 26.5522C22.4466 26.154 21.431 26.412 21.0083 27.1013L20.2132 28.398C20.0022 28.7425 19.945 29.1518 20.0541 29.5359C20.1632 29.9201 20.4297 30.2478 20.795 30.447L21.197 30.666C21.1112 31.2188 21.1112 31.7804 21.197 32.3333L20.795 32.5522C20.4298 32.7517 20.1635 33.0795 20.0544 33.4638C19.9453 33.848 20.0024 34.2574 20.2132 34.602ZM22.8605 32.5335C22.7706 32.1955 22.7249 31.8484 22.7244 31.5C22.7244 31.1535 22.7705 30.8055 22.8597 30.4665C22.9017 30.3085 22.8878 30.1419 22.8203 29.992C22.7528 29.842 22.6353 29.7169 22.4856 29.6355L21.5917 29.148L22.3861 27.8512L23.2974 28.3477C23.4461 28.4288 23.6186 28.4622 23.7891 28.443C23.9596 28.4238 24.1189 28.353 24.243 28.2413C24.7815 27.7587 25.4308 27.3996 26.1405 27.192C26.3036 27.1451 26.4463 27.0501 26.5478 26.921C26.6492 26.792 26.704 26.6356 26.7041 26.475V25.5H28.2959V26.475C28.296 26.6356 28.3508 26.792 28.4522 26.921C28.5537 27.0501 28.6964 27.1451 28.8595 27.192C29.569 27.3999 30.2183 27.7589 30.757 28.2413C30.8813 28.3528 31.0405 28.4234 31.211 28.4426C31.3814 28.4618 31.5539 28.4285 31.7026 28.3477L32.6131 27.852L33.4091 29.1487L32.5144 29.6355C32.3648 29.717 32.2473 29.8421 32.1798 29.992C32.1124 30.142 32.0985 30.3085 32.1403 30.4665C32.2295 30.8055 32.2756 31.1535 32.2756 31.5C32.2756 31.8457 32.2295 32.1937 32.1395 32.5335C32.0978 32.6916 32.1117 32.8582 32.1794 33.0081C32.247 33.158 32.3646 33.2831 32.5144 33.3645L33.4083 33.8513L32.6139 35.148L31.7026 34.6522C31.554 34.5711 31.3814 34.5376 31.2109 34.5568C31.0404 34.576 30.8811 34.6469 30.757 34.7587C30.2185 35.2413 29.5692 35.6004 28.8595 35.808C28.6964 35.8549 28.5537 35.9499 28.4522 36.079C28.3508 36.208 28.296 36.3644 28.2959 36.525L28.2975 37.5H26.7041V36.525C26.704 36.3644 26.6492 36.208 26.5478 36.079C26.4463 35.9499 26.3036 35.8549 26.1405 35.808C25.431 35.6001 24.7817 35.2411 24.243 34.7587C24.1191 34.6466 23.9597 34.5755 23.7891 34.5564C23.6184 34.5374 23.4458 34.5713 23.2974 34.653L22.3869 35.1495L21.5909 33.8527L22.4856 33.3645C22.6354 33.2831 22.753 33.158 22.8206 33.0081C22.8883 32.8582 22.9022 32.6916 22.8605 32.5335Z" fill="#60FFFF"/>
<path d="M49.4718 25.2171C48.9235 25.1516 48.4737 24.7102 48.4737 24.1579V16.4737C48.4737 13.2808 45.9243 10.6842 42.7895 10.6842H35.2632C34.7109 10.6842 34.2691 10.2346 34.2071 9.68583C33.7194 5.36625 30.1062 2 25.7368 2C21.3674 2 17.7543 5.36625 17.2665 9.68583C17.2046 10.2346 16.7628 10.6842 16.2105 10.6842H8.68421C5.54937 10.6842 3 13.2808 3 16.4737V27.0115C3 27.4302 3.26078 27.8045 3.6535 27.9495L4.87295 28.4C7.15232 29.2395 8.68421 31.4279 8.68421 33.8421C8.68421 36.2563 7.15232 38.4447 4.87295 39.2842L3.6535 39.7347C3.26078 39.8797 3 40.2541 3 40.6727V51.2105C3 54.4034 5.54937 57 8.68421 57H19.009C19.432 57 19.8092 56.7339 19.9511 56.3354L20.3937 55.0924C21.2179 52.7708 23.3665 51.2105 25.7368 51.2105C28.1072 51.2105 30.2558 52.7708 31.08 55.0924L31.5226 56.3354C31.6645 56.7339 32.0417 57 32.4647 57H42.7895C45.9243 57 48.4737 54.4034 48.4737 51.2105V43.5263C48.4737 42.974 48.9234 42.5326 49.4718 42.4671C53.7043 41.9621 57 38.2862 57 33.8421C57 29.3981 53.7043 25.7221 49.4718 25.2171ZM48.4737 36.7368H43.7889C43.2368 36.7368 42.7892 37.1842 42.7889 37.7363L42.7815 50.2111C42.7812 50.7632 42.3336 51.2105 41.7815 51.2105H36.1277C35.7691 51.2105 35.4406 51.0164 35.2474 50.7143C33.1711 47.4688 29.6073 45.4211 25.7368 45.4211C21.8664 45.4211 18.3026 47.4688 16.2263 50.7143C16.033 51.0164 15.7046 51.2105 15.346 51.2105H9.68421C9.13193 51.2105 8.68421 50.7628 8.68421 50.2105V44.4041C8.68421 44.0511 8.87229 43.727 9.16647 43.532C12.3558 41.4178 14.3684 37.7863 14.3684 33.8421C14.3684 29.8979 12.3558 26.2665 9.16647 24.1522C8.87229 23.9572 8.68421 23.6331 8.68421 23.2802V17.4737C8.68421 16.9214 9.13193 16.4737 9.68421 16.4737H21.8947C22.447 16.4737 22.8947 16.026 22.8947 15.4737V10.6842C22.8947 9.91648 23.1942 9.18019 23.7272 8.63732C24.2602 8.09445 24.9831 7.78947 25.7368 7.78947C26.4906 7.78947 27.2135 8.09445 27.7465 8.63732C28.2795 9.18019 28.5789 9.91648 28.5789 10.6842V15.4737C28.5789 16.026 29.0267 16.4737 29.5789 16.4737H41.7895C42.3418 16.4737 42.7895 16.9214 42.7895 17.4737V29.9474C42.7895 30.4997 43.2372 30.9474 43.7895 30.9474H48.4737C49.2275 30.9474 49.9504 31.2523 50.4834 31.7952C51.0164 32.3381 51.3158 33.0744 51.3158 33.8421C51.3158 34.6098 51.0164 35.3461 50.4834 35.889C49.9504 36.4319 49.2275 36.7368 48.4737 36.7368Z" fill="#60FFFF"/>
</svg>
