<svg width="60" height="60" viewBox="0 0 60 60" fill="none" xmlns="http://www.w3.org/2000/svg">
<path d="M25 45C29.4374 44.9991 33.747 43.5136 37.2425 40.78L48.2325 51.77L51.7675 48.235L40.7775 37.245C43.5125 33.7492 44.9989 29.4386 45 25C45 13.9725 36.0275 5 25 5C13.9725 5 5 13.9725 5 25C5 36.0275 13.9725 45 25 45ZM25 10C33.2725 10 40 16.7275 40 25C40 33.2725 33.2725 40 25 40C16.7275 40 10 33.2725 10 25C10 16.7275 16.7275 10 25 10Z" fill="#60FFFF"/>
<path d="M28.5301 21.465C29.4776 22.415 30.0001 23.67 30.0001 25H35.0001C35.0023 23.686 34.744 22.3847 34.2403 21.1712C33.7365 19.9577 32.9972 18.856 32.0651 17.93C28.2801 14.15 21.7176 14.15 17.9351 17.93L21.4651 21.47C23.3651 19.575 26.6401 19.58 28.5301 21.465Z" fill="#60FFFF"/>
</svg>
