<svg width="60" height="60" viewBox="0 0 60 60" fill="none" xmlns="http://www.w3.org/2000/svg">
<path d="M34.8742 26.5165L52.5519 44.1942C54.5045 46.1467 54.5045 49.3125 52.5519 51.2652C50.5993 53.2177 47.4335 53.2177 45.4808 51.2652L27.8032 33.5875" stroke="#60FFFF" stroke-width="3" stroke-linecap="round" stroke-linejoin="round"/>
<path d="M34.8745 26.5165C36.984 21.1339 36.5716 14.0715 32.2227 9.72272C27.874 5.37392 19.8485 4.41942 15.429 7.07107L22.2626 13.9046C22.7589 14.4009 23.0655 15.0556 23.129 15.7546L23.4116 18.8656C23.5811 20.7313 22.0181 22.2942 20.1525 22.1247L17.0415 21.8421C16.3425 21.7786 15.6879 21.472 15.1916 20.9757L8.35797 14.1421C5.70622 18.5615 6.66071 26.5872 11.0097 30.936C15.3585 35.2847 22.421 35.6972 27.8035 33.5875" stroke="#60FFFF" stroke-width="3" stroke-linecap="round" stroke-linejoin="round"/>
<path d="M48 46.5C46.6667 45.1667 46.1111 44.6111 46 44.5" stroke="#60FFFF" stroke-width="4" stroke-linecap="round"/>
</svg>
