<svg width="30" height="31" viewBox="0 0 30 31" fill="none" xmlns="http://www.w3.org/2000/svg">
<g clip-path="url(#clip0_54_158)">
<path d="M10 15.0461C10 15.3777 10.1317 15.6956 10.3661 15.93C10.6005 16.1644 10.9185 16.2961 11.25 16.2961C11.5815 16.2961 11.8995 16.1644 12.1339 15.93C12.3683 15.6956 12.5 15.3777 12.5 15.0461C12.5 14.7146 12.3683 14.3967 12.1339 14.1623C11.8995 13.9278 11.5815 13.7961 11.25 13.7961C10.9185 13.7961 10.6005 13.9278 10.3661 14.1623C10.1317 14.3967 10 14.7146 10 15.0461Z" stroke="white" stroke-width="2" stroke-linecap="round" stroke-linejoin="round"/>
<path d="M17.5 15.0461C17.5 15.3777 17.6317 15.6956 17.8661 15.93C18.1005 16.1644 18.4185 16.2961 18.75 16.2961C19.0815 16.2961 19.3995 16.1644 19.6339 15.93C19.8683 15.6956 20 15.3777 20 15.0461C20 14.7146 19.8683 14.3967 19.6339 14.1623C19.3995 13.9278 19.0815 13.7961 18.75 13.7961C18.4185 13.7961 18.1005 13.9278 17.8661 14.1623C17.6317 14.3967 17.5 14.7146 17.5 15.0461Z" stroke="white" stroke-width="2" stroke-linecap="round" stroke-linejoin="round"/>
<path d="M19.375 21.2961C19.375 22.5461 21.25 25.0461 21.875 25.0461C23.75 25.0461 25.4162 22.9624 26.25 21.2961C27.0837 19.2124 26.875 14.0049 24.375 6.92114C22.5537 5.65239 20.625 5.24614 18.75 5.04614L17.535 7.44989C15.8586 7.16051 14.1451 7.16051 12.4687 7.44989L11.25 5.04614C9.375 5.24614 7.44625 5.65239 5.625 6.92114C3.125 14.0049 2.91625 19.2124 3.75 21.2961C4.58375 22.9624 6.25 25.0461 8.125 25.0461C8.75 25.0461 10.625 22.5461 10.625 21.2961" stroke="white" stroke-width="2" stroke-linecap="round" stroke-linejoin="round"/>
<path d="M8.75 20.6711C13.125 21.9211 16.875 21.9211 21.25 20.6711" stroke="white" stroke-width="2" stroke-linecap="round" stroke-linejoin="round"/>
</g>
<defs>
<clipPath id="clip0_54_158">
<rect width="30" height="30" fill="white" transform="translate(0 0.0461426)"/>
</clipPath>
</defs>
</svg>
