<svg width="30" height="31" viewBox="0 0 30 31" fill="none" xmlns="http://www.w3.org/2000/svg">
<g clip-path="url(#clip0_53_147)">
<path d="M5 10.0461C5 8.72006 5.52678 7.44829 6.46447 6.51061C7.40215 5.57293 8.67392 5.04614 10 5.04614H20C21.3261 5.04614 22.5979 5.57293 23.5355 6.51061C24.4732 7.44829 25 8.72006 25 10.0461V20.0461C25 21.3722 24.4732 22.644 23.5355 23.5817C22.5979 24.5194 21.3261 25.0461 20 25.0461H10C8.67392 25.0461 7.40215 24.5194 6.46447 23.5817C5.52678 22.644 5 21.3722 5 20.0461V10.0461Z" stroke="white" stroke-width="2" stroke-linecap="round" stroke-linejoin="round"/>
<path d="M11.25 15.0461C11.25 16.0407 11.6451 16.9945 12.3483 17.6978C13.0516 18.4011 14.0054 18.7961 15 18.7961C15.9946 18.7961 16.9484 18.4011 17.6517 17.6978C18.3549 16.9945 18.75 16.0407 18.75 15.0461C18.75 14.0516 18.3549 13.0978 17.6517 12.3945C16.9484 11.6912 15.9946 11.2961 15 11.2961C14.0054 11.2961 13.0516 11.6912 12.3483 12.3945C11.6451 13.0978 11.25 14.0516 11.25 15.0461Z" stroke="white" stroke-width="2" stroke-linecap="round" stroke-linejoin="round"/>
<path d="M20.625 9.42114V9.43364" stroke="white" stroke-width="2" stroke-linecap="round" stroke-linejoin="round"/>
</g>
<defs>
<clipPath id="clip0_53_147">
<rect width="30" height="30" fill="white" transform="translate(0 0.0461426)"/>
</clipPath>
</defs>
</svg>
