<svg width="30" height="31" viewBox="0 0 30 31" fill="none" xmlns="http://www.w3.org/2000/svg">
<g clip-path="url(#clip0_54_155)">
<path d="M26.25 9.94239V14.9849C23.9826 14.7599 21.8206 13.9163 20 12.5461V18.1711C19.9997 19.6976 19.5694 21.193 18.7584 22.4862C17.9474 23.7793 16.7885 24.8179 15.4146 25.4828C14.0406 26.1478 12.5071 26.4123 10.9898 26.246C9.47249 26.0797 8.03269 25.4893 6.83538 24.5426C5.63807 23.5958 4.73167 22.3309 4.22003 20.8928C3.70839 19.4547 3.6122 17.9015 3.94249 16.4113C4.27277 14.921 5.01616 13.5539 6.0875 12.4667C7.15884 11.3794 8.51479 10.6159 10 10.2636V15.6711C9.57386 15.9907 9.23649 16.414 9.01992 16.9006C8.80336 17.3873 8.71479 17.9213 8.76263 18.4518C8.81047 18.9823 8.99312 19.4918 9.29325 19.9319C9.59338 20.372 10.001 20.728 10.4775 20.9662C10.9539 21.2044 11.4833 21.3169 12.0155 21.293C12.5476 21.269 13.0648 21.1095 13.5179 20.8294C13.971 20.5494 14.345 20.1582 14.6044 19.6929C14.8638 19.2277 15 18.7038 15 18.1711V3.79614H20.1038C20.364 5.33165 21.0955 6.74817 22.1967 7.84943C23.298 8.95068 24.7145 9.68212 26.25 9.94239Z" stroke="white" stroke-width="2" stroke-linecap="round" stroke-linejoin="round"/>
</g>
<defs>
<clipPath id="clip0_54_155">
<rect width="30" height="30" fill="white" transform="translate(0 0.0461426)"/>
</clipPath>
</defs>
</svg>
