<svg width="20" height="20" viewBox="0 0 20 20" fill="none" xmlns="http://www.w3.org/2000/svg">
<path d="M17.41 8.24071C17.4047 8.2161 17.3978 8.19188 17.3892 8.16821L15.6358 2.76905C15.5886 2.62993 15.4988 2.50919 15.3792 2.42394C15.2595 2.33869 15.1161 2.29325 14.9692 2.29405C14.8228 2.29316 14.6799 2.33921 14.5616 2.42544C14.4433 2.51168 14.3557 2.63356 14.3117 2.77321L12.64 7.91905H7.36168L5.68835 2.77238C5.64437 2.63321 5.55713 2.51169 5.43933 2.42552C5.32153 2.33934 5.17931 2.29299 5.03335 2.29321H5.02835C4.88154 2.2932 4.73848 2.33951 4.61953 2.42555C4.50057 2.51158 4.4118 2.63295 4.36585 2.77238L2.61085 8.17905C2.61085 8.18321 2.60668 8.18738 2.60501 8.19238L1.71585 10.9265C1.65017 11.1271 1.64989 11.3433 1.71504 11.544C1.78019 11.7447 1.90741 11.9195 2.07835 12.0432L9.76751 17.6315C9.90668 17.7324 10.095 17.7315 10.2325 17.629L17.9233 12.0432C18.0938 11.9191 18.2206 11.7442 18.2857 11.5437C18.3508 11.3431 18.3509 11.1271 18.2858 10.9265L17.41 8.24071ZM14.975 3.27988L16.4825 7.91821H13.4667L14.975 3.27988ZM5.02501 3.27988L6.53501 7.91821H3.52335L5.02501 3.27988ZM2.54001 11.4065C2.50364 11.3804 2.47652 11.3434 2.46259 11.3009C2.44865 11.2583 2.44863 11.2124 2.46251 11.1699L3.12335 9.13905L7.97085 15.3524L2.54001 11.4065ZM3.78918 8.70738H6.79001L8.93418 15.304L3.78918 8.70738ZM9.99918 16.0357L7.61918 8.70405H12.3842L10.8908 13.2999L9.99918 16.0357ZM11.0675 15.3049L13.1233 8.98155L13.2117 8.70738H16.215L11.56 14.6707L11.0675 15.3049ZM17.46 11.4065L12.0275 15.3507L12.0458 15.3265L16.8742 9.13905L17.5342 11.169C17.549 11.2113 17.5498 11.2573 17.5364 11.3001C17.5231 11.3429 17.4963 11.3802 17.46 11.4065Z" fill="url(#paint0_linear_132_174)"/>
<defs>
<linearGradient id="paint0_linear_132_174" x1="10.0005" y1="2.29321" x2="10.0005" y2="17.7066" gradientUnits="userSpaceOnUse">
<stop stop-color="#60C6FF"/>
<stop offset="1" stop-color="#6580E1"/>
</linearGradient>
</defs>
</svg>
