<svg width="20" height="20" viewBox="0 0 20 20" fill="none" xmlns="http://www.w3.org/2000/svg">
<path d="M4.66667 8H4.33333C3.70479 8 3.39053 8 3.19526 8.21088C3 8.42178 3 8.76118 3 9.44V15.56C3 16.2388 3 16.5782 3.19526 16.7891C3.39053 17 3.70479 17 4.33333 17H4.66667C5.29521 17 5.60947 17 5.80474 16.7891C6 16.5782 6 16.2388 6 15.56V9.44C6 8.76118 6 8.42178 5.80474 8.21088C5.60947 8 5.29521 8 4.66667 8Z" stroke="url(#paint0_linear_132_180)" stroke-width="1.3"/>
<path d="M6 4.5C6 5.32843 5.32843 6 4.5 6C3.67157 6 3 5.32843 3 4.5C3 3.67157 3.67157 3 4.5 3C5.32843 3 6 3.67157 6 4.5Z" stroke="url(#paint1_linear_132_180)" stroke-width="1.3"/>
<path d="M10.0347 8H9.43999C8.76118 8 8.42177 8 8.21088 8.21088C8 8.42178 8 8.76118 8 9.44V15.56C8 16.2388 8 16.5782 8.21088 16.7891C8.42177 17 8.76118 17 9.43999 17H9.79999C10.4788 17 10.8182 17 11.0291 16.7891C11.24 16.5782 11.24 16.2388 11.24 15.56L11.24 13.0401C11.24 11.8472 11.6202 10.8801 12.7433 10.8801C13.3047 10.8801 13.76 11.3636 13.76 11.9601V15.2001C13.76 15.8789 13.76 16.2183 13.9708 16.4292C14.1817 16.6401 14.5211 16.6401 15.1999 16.6401H15.559C16.2377 16.6401 16.577 16.6401 16.7879 16.4293C16.9988 16.2184 16.9988 15.8791 16.999 15.2004L17 11.2401C17 9.4508 15.2982 8.00017 13.6137 8.00017C12.6547 8.00017 11.7992 8.47023 11.24 9.20528C11.24 8.75161 11.24 8.52481 11.1415 8.3564C11.0791 8.24974 10.9902 8.16094 10.8836 8.09855C10.7152 8 10.4884 8 10.0347 8Z" stroke="url(#paint2_linear_132_180)" stroke-width="1.3" stroke-linejoin="round"/>
<defs>
<linearGradient id="paint0_linear_132_180" x1="4.5" y1="8" x2="4.5" y2="17" gradientUnits="userSpaceOnUse">
<stop stop-color="#60C6FF"/>
<stop offset="1" stop-color="#6580E1"/>
</linearGradient>
<linearGradient id="paint1_linear_132_180" x1="4.5" y1="3" x2="4.5" y2="6" gradientUnits="userSpaceOnUse">
<stop stop-color="#60C6FF"/>
<stop offset="1" stop-color="#6580E1"/>
</linearGradient>
<linearGradient id="paint2_linear_132_180" x1="12.5" y1="8" x2="12.5" y2="17" gradientUnits="userSpaceOnUse">
<stop stop-color="#60C6FF"/>
<stop offset="1" stop-color="#6580E1"/>
</linearGradient>
</defs>
</svg>
